<svg width="36" height="33" viewBox="0 0 36 33" fill="none" xmlns="http://www.w3.org/2000/svg">
<path d="M34.8544 15.7118L25.6138 0.625544C25.3747 0.237352 24.9572 0 24.5071 0H20.3369C19.8868 0 19.4694 0.237352 19.2302 0.625544L17.5212 3.41388L15.8145 0.625544C15.5753 0.237352 15.1578 0 14.7078 0H10.5549C10.1049 0 9.6874 0.237352 9.44823 0.625544L0.198944 15.7251C-0.0663148 16.1555 -0.0663148 16.7034 0.198944 17.1359L9.43954 32.2222C9.6787 32.6104 10.0962 32.8477 10.5462 32.8477H14.7165C15.1665 32.8477 15.584 32.6104 15.8232 32.2222L17.5321 29.4339L19.2411 32.2222C19.4803 32.6104 19.8977 32.8477 20.3478 32.8477H24.5006C24.9507 32.8477 25.3681 32.6104 25.6073 32.2222L34.8588 17.1226C35.1175 16.6901 35.1175 16.1422 34.8544 15.7118ZM21.985 15.7251C22.2503 16.1555 22.2503 16.7034 21.985 17.1359L17.5299 24.4095L13.0662 17.1226C12.8009 16.6901 12.8009 16.1422 13.0662 15.7118L17.5212 8.4382L21.985 15.7251ZM13.6011 30.8269C13.1532 31.5567 12.1095 31.5567 11.6638 30.8269L3.27769 17.1359C3.01243 16.7034 3.01243 16.1555 3.27769 15.7251L11.6616 2.03413C12.1073 1.30433 13.151 1.30211 13.5989 2.03413L15.984 5.92715L9.9918 15.7118C9.72654 16.1422 9.72654 16.6901 9.9918 17.1226L15.9927 26.9206L13.6011 30.8269ZM31.7778 17.1226L23.3917 30.8136C22.9438 31.5434 21.9002 31.5434 21.4545 30.8136L19.0715 26.9228L25.0659 17.1359C25.329 16.7034 25.329 16.1555 25.0659 15.7251L19.0628 5.92493L21.4545 2.02082C21.9002 1.29102 22.9438 1.2888 23.3917 2.02082L31.7778 15.7118C32.0409 16.1422 32.0409 16.6901 31.7778 17.1226Z" fill="#FF7028"/>
</svg>
