<svg width="50" height="50" viewBox="0 0 50 50" fill="none" xmlns="http://www.w3.org/2000/svg">
<path d="M41.7337 5.52148H11.2969V45H41.7337V5.52148Z" fill="white" stroke="#9E9E9E" stroke-width="2" stroke-miterlimit="10"/>
<path d="M16.8477 12.8252H36.1833" stroke="#9E9E9E" stroke-width="2" stroke-miterlimit="10"/>
<path d="M16.8477 19.0051H36.1833" stroke="#9E9E9E" stroke-width="2" stroke-miterlimit="10"/>
<path d="M16.8477 25.1868H36.1833" stroke="#9E9E9E" stroke-width="2" stroke-miterlimit="10"/>
<path d="M16.8477 31.3682H36.1833" stroke="#9E9E9E" stroke-width="2" stroke-miterlimit="10"/>
<path d="M16.8477 37.5496H36.1833" stroke="#9E9E9E" stroke-width="2" stroke-miterlimit="10"/>
<path d="M1.95312 11V27.3108L10.4477 32L19.9531 27.0372V11H1.95312Z" fill="white" stroke="#9E9E9E" stroke-width="2" stroke-miterlimit="10"/>
<path d="M6.95312 19.0052L9.82511 22L14.9531 16" fill="white"/>
<path d="M6.95312 19.0052L9.82511 22L14.9531 16" stroke="#9E9E9E" stroke-width="2" stroke-miterlimit="10"/>
<path d="M41.6591 7L42.876 10.9409L43.5793 11.4782H47.5185L47.9531 12.8847L44.7653 15.3207L44.4966 16.1899L45.7134 20.1308L44.5755 21L41.3877 18.564C41.27 18.474 40.6603 18.4557 40.5185 18.564L37.3308 21L36.1929 20.1308L37.4097 16.1899L37.1409 15.3207L33.9531 12.8847L34.3877 11.4782H38.327L39.0303 10.9409L40.2471 7H41.6538H41.6591Z" fill="white" stroke="#9E9E9E" stroke-width="2" stroke-miterlimit="10"/>
</svg>
