<svg width="32" height="32" viewBox="0 0 32 32" fill="none" xmlns="http://www.w3.org/2000/svg">
<path d="M20.85 8H12.0228C9.58408 8 7.60016 9.98451 7.60016 12.4239V20.5019C7.60016 22.9413 9.58408 24.9258 12.0228 24.9258H20.85C23.2886 24.9258 25.2725 22.9413 25.2725 20.5019V12.4239C25.2725 9.98451 23.2886 8 20.85 8ZM9.16031 12.4239C9.16031 10.8453 10.4446 9.56061 12.0228 9.56061H20.85C22.4281 9.56061 23.7124 10.8453 23.7124 12.4239V20.5019C23.7124 22.0805 22.4281 23.3652 20.85 23.3652H12.0228C10.4446 23.3652 9.16031 22.0805 9.16031 20.5019V12.4239Z" fill="white"/>
<path d="M16.4368 20.5776C18.7046 20.5776 20.5506 18.7321 20.5506 16.4626C20.5506 14.1932 18.7056 12.3477 16.4368 12.3477C14.1681 12.3477 12.3231 14.1932 12.3231 16.4626C12.3231 18.7321 14.1681 20.5776 16.4368 20.5776ZM16.4368 13.9093C17.8451 13.9093 18.9904 15.055 18.9904 16.4636C18.9904 17.8723 17.8451 19.018 16.4368 19.018C15.0286 19.018 13.8832 17.8723 13.8832 16.4636C13.8832 15.055 15.0286 13.9093 16.4368 13.9093Z" fill="white"/>
<path d="M20.9307 13.0104C21.5414 13.0104 22.0391 12.5135 22.0391 11.9017C22.0391 11.2898 21.5424 10.793 20.9307 10.793C20.3191 10.793 19.8223 11.2898 19.8223 11.9017C19.8223 12.5135 20.3191 13.0104 20.9307 13.0104Z" fill="white"/>
</svg>
