<svg width="32" height="32" viewBox="0 0 32 32" fill="none" xmlns="http://www.w3.org/2000/svg">
<path d="M9.33389 9.96855C8.97785 9.63797 8.80078 9.22878 8.80078 8.74192C8.80078 8.25505 8.97879 7.82786 9.33389 7.49634C9.68994 7.16576 10.1483 7 10.7098 7C11.2713 7 11.7116 7.16576 12.0667 7.49634C12.4228 7.82691 12.5999 8.24274 12.5999 8.74192C12.5999 9.2411 12.4218 9.63797 12.0667 9.96855C11.7107 10.2991 11.259 10.4649 10.7098 10.4649C10.1606 10.4649 9.68994 10.2991 9.33389 9.96855ZM12.3006 11.8649V22H9.09905V11.8649H12.3006Z" fill="#FEFFFC"/>
<path d="M22.9586 12.8652C23.6565 13.6229 24.005 14.663 24.005 15.9872V21.8201H20.9644V16.3983C20.9644 15.7305 20.7911 15.2114 20.4455 14.842C20.0998 14.4726 19.6339 14.2869 19.0506 14.2869C18.4673 14.2869 18.0014 14.4716 17.6558 14.842C17.3102 15.2114 17.1369 15.7305 17.1369 16.3983V21.8201H14.0783V11.8356H17.1369V13.1597C17.4465 12.7183 17.8641 12.3698 18.3887 12.1131C18.9133 11.8564 19.5033 11.7285 20.1595 11.7285C21.328 11.7285 22.2617 12.1074 22.9586 12.8642V12.8652Z" fill="#FEFFFC"/>
</svg>
