<svg width="50" height="50" viewBox="0 0 50 50" fill="none" xmlns="http://www.w3.org/2000/svg">
<path d="M41.7317 5.52148H11.2949V45H41.7317V5.52148Z" fill="#0F2771" stroke="white" stroke-width="2" stroke-miterlimit="10"/>
<path d="M16.8447 12.8252H36.1803" stroke="white" stroke-width="2" stroke-miterlimit="10"/>
<path d="M16.8447 19.0051H36.1803" stroke="white" stroke-width="2" stroke-miterlimit="10"/>
<path d="M16.8447 25.1868H36.1803" stroke="white" stroke-width="2" stroke-miterlimit="10"/>
<path d="M16.8447 31.3682H36.1803" stroke="white" stroke-width="2" stroke-miterlimit="10"/>
<path d="M16.8447 37.5496H36.1803" stroke="white" stroke-width="2" stroke-miterlimit="10"/>
<path d="M1.95508 11V27.3108L10.4496 32L19.9551 27.0372V11H1.95508Z" fill="#0F2771" stroke="white" stroke-width="2" stroke-miterlimit="10"/>
<path d="M6.95508 19.0052L9.82707 22L14.9551 16" fill="#0F2771"/>
<path d="M6.95508 19.0052L9.82707 22L14.9551 16" stroke="white" stroke-width="2" stroke-miterlimit="10"/>
<path d="M41.6611 7L42.8779 10.9409L43.5812 11.4782H47.5205L47.9551 12.8847L44.7673 15.3207L44.4985 16.1899L45.7153 20.1308L44.5774 21L41.3897 18.564C41.272 18.474 40.6622 18.4557 40.5205 18.564L37.3327 21L36.1948 20.1308L37.4116 16.1899L37.1429 15.3207L33.9551 12.8847L34.3897 11.4782H38.3289L39.0323 10.9409L40.2491 7H41.6557H41.6611Z" fill="#0F2771" stroke="white" stroke-width="2" stroke-miterlimit="10"/>
</svg>
