<svg width="47" height="46" viewBox="0 0 47 46" fill="none" xmlns="http://www.w3.org/2000/svg">
<path d="M22.7148 3.12402C23.1069 2.99315 23.5612 2.97108 24.084 3.03613C24.3613 3.29602 24.4796 3.63838 24.6152 4.21191L24.793 5L24.7959 5.01074C24.842 5.20403 24.888 5.39756 24.9355 5.59668V5.59766L25.3701 7.45996L25.3711 7.46387C25.4668 7.86942 25.563 8.27522 25.6592 8.68066V8.68164L25.9453 9.89258C25.9923 10.0915 26.0395 10.2903 26.0879 10.4951V10.4961C26.2051 10.9955 26.3207 11.4942 26.4326 11.9932L26.7588 13.4912L26.7598 13.4971L26.8867 14.083C26.9642 14.4413 27.0393 14.7996 27.1104 15.1582L27.1123 15.1689L27.1143 15.1787C27.2358 15.7326 27.3813 16.2734 27.6562 16.7764C27.9429 17.3007 28.3379 17.7283 28.8818 18.123L28.9844 18.1973L29.1016 18.2432C29.466 18.3873 29.6977 18.4796 29.9482 18.5557C30.1931 18.63 30.4506 18.687 30.8633 18.7793L31.3389 18.8984L31.3418 18.8994C31.8876 19.034 32.4332 19.1621 32.9756 19.2871V19.2861L33.5527 19.4199H33.5547L35.3672 19.833L35.9844 19.9727L36.6064 20.1133L37.2305 20.2539L37.2324 20.2549C37.6585 20.3503 38.0852 20.4435 38.5117 20.5361V20.5371C39.13 20.672 39.7483 20.8123 40.3701 20.9551L40.3789 20.957L40.3887 20.959C40.5696 20.9969 40.7506 21.0342 40.9365 21.0732V21.0742C41.4961 21.2059 41.8622 21.3452 42.1641 21.5303C42.4188 21.6865 42.6656 21.9026 42.9551 22.2432C42.9908 22.4479 43 22.5109 43 22.5674C43 22.621 42.9926 22.6781 42.957 22.874C42.4441 23.4616 41.851 23.6293 40.7207 23.8818L40.7129 23.8828L40.7061 23.8848L40.1221 24.0244L38.2773 24.4521L38.2715 24.4531L37.0615 24.7393L35.8594 25.0234L35.2607 25.1641C34.7653 25.28 34.2702 25.3935 33.7754 25.5029L32.29 25.8193L32.2812 25.8213L31.6982 25.9443C31.3426 26.0197 30.9867 26.0913 30.6309 26.1582L30.6172 26.1611L30.6045 26.1641C30.1639 26.2594 29.7497 26.3716 29.3457 26.5635C28.9323 26.7598 28.5719 27.0187 28.2031 27.3633L28.0967 27.4629L28.0225 27.5889C27.607 28.2988 27.3671 28.9481 27.1787 29.6348L27.0039 30.332L26.8828 30.8447L26.8818 30.8467L26.5039 32.4922L26.2432 33.6074V33.6084C25.7436 35.7445 25.2503 37.8937 24.8076 40.0557C24.5868 41.1075 24.5081 41.448 24.4189 41.6387C24.3893 41.702 24.3847 41.7241 24.1143 41.9404C23.6918 42.0388 23.3462 42.0049 22.7988 41.877C22.5022 41.505 22.3508 41.1397 22.2168 40.5859L22.1494 40.2861L22.1484 40.2803L21.9795 39.5059L21.8066 38.6807L21.8047 38.6709L21.4209 36.9229L20.832 34.1748V34.1738L20.25 31.5078C20.1944 31.2381 20.1393 30.9683 20.082 30.6904L20.0801 30.6826L20.0791 30.6758L19.9346 30.0322C19.7956 29.433 19.6609 28.9575 19.4277 28.5293C19.1152 27.9554 18.6413 27.4944 17.9893 26.8418L17.8311 26.6836L17.6211 26.6084L17.0908 26.4258C16.5689 26.2547 16.061 26.1151 15.499 25.9932H15.498L14.9326 25.8594L14.9316 25.8584L13.0762 25.4355H13.0771L11.8672 25.1543V25.1533C11.0693 24.9672 10.2703 24.7816 9.47168 24.5967H9.47266L8.88574 24.4609H8.88379L7.71582 24.1963L6.08008 23.8223L6.07422 23.8203L5.18164 23.6191C4.81683 23.4906 4.61546 23.3923 4.45996 23.2832C4.33838 23.1979 4.21418 23.084 4.05371 22.8916C4.01261 22.6259 4.00003 22.5265 4 22.4316C4 22.3434 4.01063 22.2511 4.04492 22.0254C4.62426 21.4819 5.33042 21.2606 6.27246 21.0488L7.42383 20.8008L7.43457 20.7979C7.71187 20.734 7.98969 20.6703 8.27539 20.6045L8.27441 20.6035L10.9248 20.0059L10.9277 20.0049C11.8147 19.804 12.7021 19.6027 13.5889 19.3994L13.5879 19.3984L15.2363 19.0273L15.2402 19.0264C15.6147 18.9414 15.6148 18.9413 15.9971 18.8545L15.9961 18.8535C16.2147 18.8046 16.4339 18.7565 16.6592 18.7061L16.6855 18.7002L16.7119 18.6924C17.3428 18.5146 17.9285 18.3148 18.5674 17.9062L18.8145 17.748L18.9365 17.4814C19.6822 15.8567 20.0465 14.1577 20.4033 12.5635L20.5801 11.79L21.1328 9.3584L21.8643 6.15137L21.8652 6.14648C21.9473 5.78033 21.9474 5.77835 22.0303 5.4082L22.1895 4.71582V4.71289C22.2323 4.52322 22.2753 4.3335 22.3193 4.13867C22.4291 3.76095 22.5513 3.44242 22.7148 3.12402Z" stroke="white" stroke-width="2"/>
<path d="M42 36V39" stroke="white"/>
<path d="M42 43V46" stroke="white"/>
<path d="M46.7227 41L43.7227 41" stroke="white"/>
<path d="M40 41L37 41" stroke="white"/>
<circle cx="42" cy="41.0002" r="1" fill="white"/>
<path d="M6.17188 0V3.70286" stroke="white"/>
<path d="M6.17188 8.64001V12.3429" stroke="white"/>
<path d="M12 6.17096L8.29714 6.17096" stroke="white"/>
<path d="M3.70312 6.17096L0.000267804 6.17096" stroke="white"/>
<circle cx="6.17179" cy="6.17142" r="1.23429" fill="white"/>
</svg>
