<svg width="50" height="50" viewBox="0 0 50 50" fill="none" xmlns="http://www.w3.org/2000/svg">
<path d="M13.478 20.2745H5.76824L1.53482 28.2855V30.9167L2.82315 32.1033H9.0675H10.1787H16.4231L17.7114 30.9167V28.2855L13.478 20.2745Z" fill="#0F2771" stroke="white" stroke-width="2" stroke-miterlimit="10"/>
<path d="M9.6239 18.1204C11.9232 18.1204 13.7872 16.202 13.7872 13.8354C13.7872 11.4689 11.9232 9.55042 9.6239 9.55042C7.32457 9.55042 5.4606 11.4689 5.4606 13.8354C5.4606 16.202 7.32457 18.1204 9.6239 18.1204Z" fill="#0F2771" stroke="white" stroke-width="2" stroke-miterlimit="10"/>
<path d="M44.2309 20.2745H36.5224L32.2878 28.2855V30.9167L33.5761 32.1033H39.8216H40.9317H47.1772L48.4655 30.9167V28.2855L44.2309 20.2745Z" fill="#0F2771" stroke="white" stroke-width="2" stroke-miterlimit="10"/>
<path d="M40.3759 18.1204C42.6752 18.1204 44.5392 16.202 44.5392 13.8354C44.5392 11.4689 42.6752 9.55042 40.3759 9.55042C38.0765 9.55042 36.2126 11.4689 36.2126 13.8354C36.2126 16.202 38.0765 18.1204 40.3759 18.1204Z" fill="#0F2771" stroke="white" stroke-width="2" stroke-miterlimit="10"/>
<path d="M30.0178 25.05H19.9822L14.4699 35.4794V38.9045L16.1469 40.4494H24.2774H25.7226H33.8531L35.5301 38.9045V35.4794L30.0178 25.05Z" fill="#0F2771" stroke="white" stroke-width="2" stroke-miterlimit="10"/>
<path d="M25 22.2464C27.9938 22.2464 30.4207 19.7485 30.4207 16.6672C30.4207 13.5859 27.9938 11.088 25 11.088C22.0062 11.088 19.5793 13.5859 19.5793 16.6672C19.5793 19.7485 22.0062 22.2464 25 22.2464Z" fill="#0F2771" stroke="white" stroke-width="2" stroke-miterlimit="10"/>
</svg>
