<svg width="50" height="36" viewBox="0 0 50 36" fill="none" xmlns="http://www.w3.org/2000/svg">
<g clip-path="url(#clip0_678_14590)">
<path d="M25.3366 18.9147L29.5594 21.37V28.98H3.60156V25.0519L6.70586 14.7412L25.3366 18.9147Z" fill="white" stroke="#9E9E9E" stroke-width="2" stroke-miterlimit="10"/>
<path d="M49.557 27.5073H1.24219V31.9262H49.557V27.5073Z" fill="white" stroke="#9E9E9E" stroke-width="2" stroke-miterlimit="10"/>
<path d="M48.3872 24.4312H32.8242V7.41553H44.7113L48.3872 18.5257V24.4312Z" fill="white" stroke="#9E9E9E" stroke-width="2" stroke-miterlimit="10"/>
<path d="M36.2344 16.1662V10.2422H42.3352L44.1706 16.1819L36.2344 16.1662Z" fill="white" stroke="#9E9E9E" stroke-width="2" stroke-miterlimit="10"/>
<path d="M39.4027 34.5601C42.1773 34.5601 44.4266 32.3371 44.4266 29.5949C44.4266 26.8526 42.1773 24.6296 39.4027 24.6296C36.6282 24.6296 34.3789 26.8526 34.3789 29.5949C34.3789 32.3371 36.6282 34.5601 39.4027 34.5601Z" fill="white" stroke="#9E9E9E" stroke-width="2" stroke-miterlimit="10"/>
<path d="M39.4006 31.6124C40.5279 31.6124 41.4417 30.7092 41.4417 29.595C41.4417 28.4808 40.5279 27.5776 39.4006 27.5776C38.2732 27.5776 37.3594 28.4808 37.3594 29.595C37.3594 30.7092 38.2732 31.6124 39.4006 31.6124Z" fill="white" stroke="#9E9E9E" stroke-width="2" stroke-miterlimit="10"/>
<path d="M12.8441 34.5601C15.6187 34.5601 17.868 32.3371 17.868 29.5949C17.868 26.8526 15.6187 24.6296 12.8441 24.6296C10.0696 24.6296 7.82031 26.8526 7.82031 29.5949C7.82031 32.3371 10.0696 34.5601 12.8441 34.5601Z" fill="white" stroke="#9E9E9E" stroke-width="2" stroke-miterlimit="10"/>
<path d="M25.403 23L15.4299 21.8219L8.3287 17.8332L2 9.8519L6.59797 2L16.7484 3.42014L23.8628 7.41724L30 15.1481L25.403 23Z" fill="white" stroke="#9E9E9E" stroke-width="2" stroke-miterlimit="10"/>
<path d="M16.0002 2.98022L7.17188 18.2268" stroke="#9E9E9E" stroke-width="2" stroke-miterlimit="10"/>
<path d="M23.4593 7.2085L14.6172 22.4462" stroke="#9E9E9E" stroke-width="2" stroke-miterlimit="10"/>
<path d="M12.842 31.6124C13.9693 31.6124 14.8831 30.7092 14.8831 29.595C14.8831 28.4808 13.9693 27.5776 12.842 27.5776C11.7146 27.5776 10.8008 28.4808 10.8008 29.595C10.8008 30.7092 11.7146 31.6124 12.842 31.6124Z" fill="white" stroke="#9E9E9E" stroke-width="2" stroke-miterlimit="10"/>
</g>
<defs>
<clipPath id="clip0_678_14590">
<rect width="50" height="36" fill="white"/>
</clipPath>
</defs>
</svg>
