<svg width="44" height="39" viewBox="0 0 44 39" fill="none" xmlns="http://www.w3.org/2000/svg">
<path fill-rule="evenodd" clip-rule="evenodd" d="M22.221 0.529618C22.8765 0.27478 23.5833 0.758348 23.5833 1.46166V36.3029C23.5833 36.7938 23.9813 37.1917 24.4722 37.1917C24.9631 37.1917 25.3611 36.7938 25.3611 36.3029V11.1419C25.3611 10.4236 26.096 9.93954 26.7559 10.2232L38.8115 15.4041C39.1787 15.5619 39.4167 15.9232 39.4167 16.3228V36.1917C39.4167 36.744 39.8644 37.1917 40.4167 37.1917H43.0959C43.5952 37.1917 44 37.5965 44 38.0959C44 38.5952 43.5952 39 43.0959 39H0.904125C0.404791 39 0 38.5952 0 38.0959C0 37.5965 0.404791 37.1917 0.904125 37.1917H2.97222C3.52451 37.1917 3.97222 36.744 3.97222 36.1917V8.30809C3.97222 7.89564 4.22546 7.52549 4.60989 7.37605L22.221 0.529618ZM5.80556 36.1917C5.80556 36.744 6.25327 37.1917 6.80555 37.1917H20.75C21.3023 37.1917 21.75 36.744 21.75 36.1917V4.11802C21.75 3.41471 21.0432 2.93114 20.3877 3.18598L6.44322 8.60696C6.05879 8.75641 5.80556 9.12656 5.80556 9.53901V36.1917ZM36.5833 37.1917C37.1356 37.1917 37.5833 36.744 37.5833 36.1917V17.5074C37.5833 17.1077 37.3454 16.7464 36.9782 16.5886L28.5893 12.9835C27.9293 12.6999 27.1944 13.1839 27.1944 13.9022V36.1917C27.1944 36.744 27.6422 37.1917 28.1944 37.1917H36.5833ZM9.47222 12.2735C9.47222 11.7213 9.91994 11.2735 10.4722 11.2735H13.9722C14.5245 11.2735 14.9722 11.7213 14.9722 12.2735V18.712C14.9722 19.2643 14.5245 19.712 13.9722 19.712H10.4722C9.91994 19.712 9.47222 19.2643 9.47222 18.712V12.2735ZM12.2222 13.0818C11.716 13.0818 11.3056 13.4922 11.3056 13.9985V16.9871C11.3056 17.4934 11.716 17.9038 12.2222 17.9038C12.7285 17.9038 13.1389 17.4934 13.1389 16.9871V13.9985C13.1389 13.4922 12.7285 13.0818 12.2222 13.0818ZM29.6389 20.1093C29.6389 19.557 30.0866 19.1093 30.6389 19.1093H34.1389C34.6912 19.1093 35.1389 19.557 35.1389 20.1093V26.5478C35.1389 27.1 34.6912 27.5478 34.1389 27.5478H30.6389C30.0866 27.5478 29.6389 27.1 29.6389 26.5478V20.1093ZM32.3889 20.9175C31.8826 20.9175 31.4722 21.3279 31.4722 21.8342V24.8228C31.4722 25.3291 31.8826 25.7395 32.3889 25.7395C32.8951 25.7395 33.3056 25.3291 33.3056 24.8228V21.8342C33.3056 21.3279 32.8951 20.9175 32.3889 20.9175ZM9.47222 22.5203C9.47222 21.968 9.91994 21.5203 10.4722 21.5203H13.9722C14.5245 21.5203 14.9722 21.968 14.9722 22.5203V28.9588C14.9722 29.511 14.5245 29.9588 13.9722 29.9588H10.4722C9.91994 29.9588 9.47222 29.511 9.47222 28.9588V22.5203ZM12.2222 23.3285C11.716 23.3285 11.3056 23.7389 11.3056 24.2452V27.2338C11.3056 27.7401 11.716 28.1505 12.2222 28.1505C12.7285 28.1505 13.1389 27.7401 13.1389 27.2338V24.2452C13.1389 23.7389 12.7285 23.3285 12.2222 23.3285Z" fill="white"/>
</svg>
