<svg width="48" height="49" viewBox="0 0 48 49" fill="none" xmlns="http://www.w3.org/2000/svg">
<path fill-rule="evenodd" clip-rule="evenodd" d="M20.1615 13.4362C20.1615 12.9045 19.9497 12.3946 19.573 12.0193L14.6268 7.09204C14.2467 6.71333 13.7303 6.50327 13.1937 6.50907L10.8451 6.53448C10.1596 6.54189 9.52567 6.89987 9.16532 7.48304L6.45981 11.8614C6.16668 12.3358 6.08491 12.9111 6.23425 13.4484L7.43707 17.7759C7.52974 18.1093 7.70734 18.413 7.95251 18.6572L28.8326 39.4576C29.0546 39.6787 29.3254 39.8445 29.6232 39.9418L33.5359 41.2197C34.0815 41.3979 34.6773 41.3331 35.1719 41.0419L39.9809 38.2094C40.5845 37.8539 40.9581 37.2084 40.9657 36.5079L40.9908 34.2079C40.9967 33.6686 40.7845 33.1498 40.4024 32.7692L35.4564 27.842C35.0815 27.4686 34.574 27.2589 34.0449 27.2589L31.339 27.2589C30.8609 27.2589 30.3993 27.4335 30.0408 27.7498L29.954 27.8265C29.6515 28.0935 29.262 28.2408 28.8585 28.2408C28.4332 28.2408 28.0242 28.0771 27.7164 27.7837L18.8647 19.3476C18.6318 19.1256 18.5 18.8179 18.5 18.4962C18.5 18.179 18.6282 17.8751 18.8555 17.6538L19.5569 16.9706C19.9435 16.5941 20.1615 16.0774 20.1615 15.5378V13.4362ZM37.8926 33.4137C38.2808 33.7884 38.5 34.3047 38.5 34.8442C38.5 35.5587 38.1165 36.2183 37.4955 36.5718L34.759 38.1298C34.2449 38.4225 33.6276 38.4725 33.073 38.2665L30.7512 37.404C30.4867 37.3057 30.246 37.1526 30.0448 36.9546L10.4127 17.6336C10.1431 17.3683 9.95427 17.032 9.86811 16.6637L9.18214 13.7317C9.06521 13.2319 9.14492 12.7063 9.40476 12.2636L10.8503 9.80096C11.1171 9.34648 11.6047 9.06732 12.1317 9.06732C12.5174 9.06732 12.888 9.21734 13.1651 9.48565L17.4529 13.6369C17.7951 13.9683 17.9883 14.4243 17.9883 14.9006C17.9883 15.377 17.7951 15.833 17.4529 16.1643L16.9636 16.638C16.5744 17.0148 16.3547 17.5333 16.3547 18.0749V18.7298C16.3547 19.2701 16.5734 19.7875 16.961 20.1641L27.2865 30.1978C27.6598 30.5605 28.1598 30.7634 28.6803 30.7634H29.4663C29.8778 30.7634 30.2793 30.6365 30.616 30.3999L31.6119 29.7003C31.9486 29.4638 32.3501 29.3368 32.7616 29.3368H32.861C33.3792 29.3368 33.8772 29.538 34.25 29.8978L37.8926 33.4137Z" fill="white"/>
</svg>
