<svg width="17" height="17" viewBox="0 0 17 17" fill="none" xmlns="http://www.w3.org/2000/svg">
<path d="M1.33389 3.87187C0.977846 3.54129 0.800781 3.1321 0.800781 2.64524C0.800781 2.15837 0.978793 1.73118 1.33389 1.39966C1.68994 1.06908 2.14825 0.90332 2.70978 0.90332C3.27131 0.90332 3.71164 1.06908 4.06674 1.39966C4.42279 1.73023 4.59985 2.14606 4.59985 2.64524C4.59985 3.14442 4.42184 3.54129 4.06674 3.87187C3.7107 4.20245 3.259 4.36821 2.70978 4.36821C2.16056 4.36821 1.68994 4.20245 1.33389 3.87187ZM4.30063 5.76818V15.9033H1.09905V5.76818H4.30063Z" fill="#FEFFFC"/>
<path d="M14.9586 6.76849C15.6565 7.52625 16.005 8.5663 16.005 9.89049V15.7234H12.9644V10.3016C12.9644 9.6338 12.7911 9.11472 12.4455 8.74531C12.0998 8.3759 11.6339 8.19025 11.0506 8.19025C10.4673 8.19025 10.0014 8.37495 9.65579 8.74531C9.31016 9.11472 9.13687 9.6338 9.13687 10.3016V15.7234H6.07831V5.73887H9.13687V7.06307C9.44652 6.62167 9.86414 6.2731 10.3887 6.01641C10.9133 5.75971 11.5033 5.63184 12.1595 5.63184C13.328 5.63184 14.2617 6.01072 14.9586 6.76754V6.76849Z" fill="#FEFFFC"/>
</svg>
