<svg width="50" height="50" viewBox="0 0 50 50" fill="none" xmlns="http://www.w3.org/2000/svg">
<g clip-path="url(#clip0_665_9013)">
<path d="M25.3356 24.9147L29.5584 27.37V34.98H3.60059V31.0519L6.70488 20.7412L25.3356 24.9147Z" fill="#0F2771" stroke="white" stroke-width="2" stroke-miterlimit="10"/>
<path d="M49.5551 33.5073H1.24023V37.9262H49.5551V33.5073Z" fill="#0F2771" stroke="white" stroke-width="2" stroke-miterlimit="10"/>
<path d="M48.3872 30.4312H32.8242V13.4155H44.7113L48.3872 24.5257V30.4312Z" fill="#0F2771" stroke="white" stroke-width="2" stroke-miterlimit="10"/>
<path d="M36.2334 22.1662V16.2422H42.3342L44.1697 22.1819L36.2334 22.1662Z" fill="#0F2771" stroke="white" stroke-width="2" stroke-miterlimit="10"/>
<path d="M39.4018 40.5601C42.1764 40.5601 44.4256 38.3371 44.4256 35.5949C44.4256 32.8526 42.1764 30.6296 39.4018 30.6296C36.6272 30.6296 34.3779 32.8526 34.3779 35.5949C34.3779 38.3371 36.6272 40.5601 39.4018 40.5601Z" fill="#0F2771" stroke="white" stroke-width="2" stroke-miterlimit="10"/>
<path d="M39.4015 37.6124C40.5288 37.6124 41.4427 36.7092 41.4427 35.595C41.4427 34.4808 40.5288 33.5776 39.4015 33.5776C38.2742 33.5776 37.3604 34.4808 37.3604 35.595C37.3604 36.7092 38.2742 37.6124 39.4015 37.6124Z" fill="#0F2771" stroke="white" stroke-width="2" stroke-miterlimit="10"/>
<path d="M12.8432 40.5601C15.6178 40.5601 17.867 38.3371 17.867 35.5949C17.867 32.8526 15.6178 30.6296 12.8432 30.6296C10.0686 30.6296 7.81934 32.8526 7.81934 35.5949C7.81934 38.3371 10.0686 40.5601 12.8432 40.5601Z" fill="#0F2771" stroke="white" stroke-width="2" stroke-miterlimit="10"/>
<path d="M25.403 29L15.4299 27.8219L8.3287 23.8332L2 15.8519L6.59797 8L16.7484 9.42014L23.8628 13.4172L30 21.1481L25.403 29Z" fill="#0F2771" stroke="white" stroke-width="2" stroke-miterlimit="10"/>
<path d="M15.9982 8.98022L7.16992 24.2268" stroke="white" stroke-width="2" stroke-miterlimit="10"/>
<path d="M23.4574 13.2085L14.6152 28.4462" stroke="white" stroke-width="2" stroke-miterlimit="10"/>
<path d="M12.8429 37.6124C13.9702 37.6124 14.8841 36.7092 14.8841 35.595C14.8841 34.4808 13.9702 33.5776 12.8429 33.5776C11.7156 33.5776 10.8018 34.4808 10.8018 35.595C10.8018 36.7092 11.7156 37.6124 12.8429 37.6124Z" fill="#0F2771" stroke="white" stroke-width="2" stroke-miterlimit="10"/>
</g>
<defs>
<clipPath id="clip0_665_9013">
<rect width="50" height="36" fill="white" transform="translate(0 6)"/>
</clipPath>
</defs>
</svg>
