<svg width="48" height="49" viewBox="0 0 48 49" fill="none" xmlns="http://www.w3.org/2000/svg">
<path d="M23.5758 41.25C23.4209 41.25 23.2777 41.1674 23.2002 41.0333L10.577 19.1853C10.4601 18.983 10.4442 18.7377 10.534 18.522L15.2409 7.21184C15.3573 6.93219 15.6305 6.75 15.9334 6.75L31.2183 6.75C31.5212 6.75 31.7944 6.9322 31.9107 7.21184L36.6176 18.5219C36.7074 18.7377 36.6914 18.983 36.5745 19.1853L23.9513 41.0333C23.8738 41.1674 23.7306 41.25 23.5758 41.25Z" stroke="white" stroke-width="2.5"/>
<path d="M23.5758 21.0684L21.417 21.0684C21.1218 21.0684 20.854 20.8952 20.733 20.6259L19.4606 17.7955C19.3766 17.6086 19.3727 17.3955 19.4498 17.2057L20.7746 13.9451C20.8895 13.6624 21.1643 13.4775 21.4695 13.4775L25.6821 13.4775C25.9873 13.4775 26.2621 13.6624 26.3769 13.9451L27.7017 17.2057C27.7789 17.3955 27.775 17.6086 27.691 17.7955L26.4186 20.6259C26.2976 20.8951 26.0298 21.0684 25.7345 21.0684L23.5758 21.0684Z" stroke="white" stroke-width="2.5"/>
</svg>
