<svg width="63" height="63" viewBox="0 0 63 63" fill="none" xmlns="http://www.w3.org/2000/svg">
<path d="M7.10156 25.4739V19.875L12.1576 27.7276C12.5257 28.2993 13.1591 28.6449 13.8391 28.6449H32.2188C33.2661 28.6449 34.1151 29.4939 34.1151 30.5412C34.1151 31.5885 33.2661 32.4375 32.2188 32.4375H12.3605C11.6868 32.4375 11.0584 32.0983 10.6887 31.5352L7.42971 26.5716C7.21563 26.2455 7.10156 25.864 7.10156 25.4739Z" fill="white"/>
<path d="M55.9404 25.4739V19.875L50.8844 27.7276C50.5163 28.2993 49.8829 28.6449 49.2029 28.6449H30.8232C29.7759 28.6449 28.9269 29.4939 28.9269 30.5412C28.9269 31.5885 29.7759 32.4375 30.8232 32.4375H50.6815C51.3552 32.4375 51.9836 32.0983 52.3533 31.5352L55.6123 26.5716C55.8264 26.2455 55.9404 25.864 55.9404 25.4739Z" fill="white"/>
<path d="M55.4281 43.4669L56.4063 44.2452L55.4281 43.4669C55.2858 43.6458 55.0698 43.75 54.8412 43.75H8.15878C7.93023 43.75 7.71416 43.6458 7.57187 43.4669L6.83856 44.0504L7.57187 43.4669L6.41309 42.0105C6.30749 41.8777 6.25 41.7131 6.25 41.5435V15.4565C6.25 15.2869 6.30749 15.1223 6.41309 14.9895L7.57187 13.5331C7.71416 13.3542 7.93023 13.25 8.15878 13.25H54.8412C55.0698 13.25 55.2858 13.3542 55.4281 13.5331L56.5869 14.9895C56.6925 15.1223 56.75 15.2869 56.75 15.4565V41.5435C56.75 41.7131 56.6925 41.8777 56.5869 42.0105L55.4281 43.4669Z" stroke="white" stroke-width="2.5"/>
</svg>
