<svg width="16" height="17" viewBox="0 0 16 17" fill="none" xmlns="http://www.w3.org/2000/svg">
<g clip-path="url(#clip0_854_42728)">
<path d="M11.9959 0.500122H4.00407C1.79618 0.500122 0 2.29683 0 4.50537V11.8189C0 14.0275 1.79618 15.8242 4.00407 15.8242H11.9959C14.2038 15.8242 16 14.0275 16 11.8189V4.50537C16 2.29683 14.2038 0.500122 11.9959 0.500122ZM1.41251 4.50537C1.41251 3.07615 2.57527 1.91305 4.00407 1.91305H11.9959C13.4247 1.91305 14.5875 3.07615 14.5875 4.50537V11.8189C14.5875 13.2481 13.4247 14.4112 11.9959 14.4112H4.00407C2.57527 14.4112 1.41251 13.2481 1.41251 11.8189V4.50537Z" fill="black" fill-opacity="0.4"/>
<path d="M8.00181 11.8868C10.055 11.8868 11.7263 10.2159 11.7263 8.16123C11.7263 6.10656 10.0559 4.43567 8.00181 4.43567C5.94775 4.43567 4.27734 6.10656 4.27734 8.16123C4.27734 10.2159 5.94775 11.8868 8.00181 11.8868ZM8.00181 5.8495C9.27678 5.8495 10.3138 6.88679 10.3138 8.16213C10.3138 9.43748 9.27678 10.4748 8.00181 10.4748C6.72684 10.4748 5.68986 9.43748 5.68986 8.16213C5.68986 6.88679 6.72684 5.8495 8.00181 5.8495Z" fill="black" fill-opacity="0.4"/>
<path d="M12.0699 5.03739C12.6228 5.03739 13.0734 4.58754 13.0734 4.03359C13.0734 3.47964 12.6237 3.02979 12.0699 3.02979C11.5161 3.02979 11.0664 3.47964 11.0664 4.03359C11.0664 4.58754 11.5161 5.03739 12.0699 5.03739Z" fill="black" fill-opacity="0.4"/>
</g>
<defs>
<clipPath id="clip0_854_42728">
<rect width="16" height="16" fill="white" transform="translate(0 0.5)"/>
</clipPath>
</defs>
</svg>
