<svg width="51" height="42" viewBox="0 0 51 42" fill="none" xmlns="http://www.w3.org/2000/svg">
<path d="M7.28125 8.70772C7.6427 8.56247 8.00414 8.41723 8.37654 8.26758C10.2649 7.78936 11.9046 8.14346 13.6339 8.97593C14.5331 9.38994 15.3136 9.56483 16.278 9.25875C16.6863 9.09283 17.0808 8.91329 17.464 8.69483C18.9276 7.86295 20.7865 7.91321 22.3725 8.30401C22.9768 8.48718 23.5382 8.77995 24.0995 9.06619C24.8359 9.43983 25.6086 9.50679 26.4116 9.28884C26.7771 9.14452 27.1225 8.97997 27.4654 8.78767C29.0347 7.92058 30.8502 7.88302 32.5587 8.30401C33.163 8.48718 33.7244 8.77995 34.2857 9.06619C35.0195 9.43856 35.7937 9.50896 36.594 9.28884C36.8694 9.17887 37.135 9.0576 37.4017 8.92779C38.344 8.48857 39.2011 8.13097 40.2495 8.04751C40.3198 8.04155 40.3901 8.0356 40.4626 8.02946C41.0298 8.00563 41.575 8.0917 42.132 8.19193C42.2062 8.20488 42.2804 8.21782 42.3568 8.23115C42.858 8.32775 43.1702 8.4693 43.6449 8.70772" stroke="white" stroke-width="2"/>
<path d="M7.28125 16.8559C7.6427 16.7107 8.00414 16.5654 8.37654 16.4158C10.2649 15.9376 11.9046 16.2916 13.6339 17.1241C14.5331 17.5381 15.3136 17.713 16.278 17.4069C16.6863 17.241 17.0808 17.0615 17.464 16.843C18.9276 16.0111 20.7865 16.0614 22.3725 16.4522C22.9768 16.6354 23.5382 16.9281 24.0995 17.2144C24.8359 17.588 25.6086 17.655 26.4116 17.437C26.7771 17.2927 27.1225 17.1282 27.4654 16.9359C29.0347 16.0688 30.8502 16.0312 32.5587 16.4522C33.163 16.6354 33.7244 16.9281 34.2857 17.2144C35.0195 17.5868 35.7937 17.6572 36.594 17.437C36.8694 17.3271 37.135 17.2058 37.4017 17.076C38.344 16.6368 39.2011 16.2792 40.2495 16.1957C40.3198 16.1897 40.3901 16.1838 40.4626 16.1777C41.0298 16.1538 41.575 16.2399 42.132 16.3401C42.2062 16.3531 42.2804 16.366 42.3568 16.3793C42.858 16.4759 43.1702 16.6175 43.6449 16.8559" stroke="white" stroke-width="2"/>
<path d="M7.28125 25.1204C7.6427 24.9751 8.00414 24.8299 8.37654 24.6802C10.2649 24.202 11.9046 24.5561 13.6339 25.3886C14.5331 25.8026 15.3136 25.9775 16.278 25.6714C16.6863 25.5055 17.0808 25.3259 17.464 25.1075C18.9276 24.2756 20.7865 24.3259 22.3725 24.7167C22.9768 24.8998 23.5382 25.1926 24.0995 25.4789C24.8359 25.8525 25.6086 25.9195 26.4116 25.7015C26.7771 25.5572 27.1225 25.3926 27.4654 25.2003C29.0347 24.3332 30.8502 24.2957 32.5587 24.7167C33.163 24.8998 33.7244 25.1926 34.2857 25.4789C35.0195 25.8512 35.7937 25.9216 36.594 25.7015C36.8694 25.5915 37.135 25.4703 37.4017 25.3404C38.344 24.9012 39.2011 24.5436 40.2495 24.4602C40.3198 24.4542 40.3901 24.4483 40.4626 24.4421C41.0298 24.4183 41.575 24.5044 42.132 24.6046C42.2062 24.6175 42.2804 24.6305 42.3568 24.6438C42.858 24.7404 43.1702 24.882 43.6449 25.1204" stroke="white" stroke-width="2"/>
<path d="M7.57388 29.0615L8.28099 28.3544H8.28099L7.57388 29.0615ZM12.4426 33.9302L11.7355 34.6374L11.7355 34.6374L12.4426 33.9302ZM38.1524 33.9302L38.8595 34.6374L38.1524 33.9302ZM43.0212 29.0615L42.3141 28.3544L42.314 28.3544L43.0212 29.0615ZM0 2V40H2V2H0ZM2 0C0.895432 0 0 0.895428 0 2H2L2 2V0ZM6.28099 0H2V2H6.28099V0ZM8.28099 2C8.28099 0.89543 7.38556 0 6.28099 0V2H8.28099ZM8.28099 28.3544V2H6.28099V28.3544H8.28099ZM8.28099 28.3544L8.28099 28.3544H6.28099C6.28099 28.8848 6.49171 29.3935 6.86678 29.7686L8.28099 28.3544ZM13.1498 33.2231L8.28099 28.3544L6.86678 29.7686L11.7355 34.6374L13.1498 33.2231ZM13.1498 33.2231L13.1497 33.2231L11.7355 34.6374C12.1106 35.0124 12.6193 35.2231 13.1498 35.2231V33.2231ZM23.4876 33.2231H13.1498V35.2231H23.4876V33.2231ZM23.4876 35.2231H27.1074V33.2231H23.4876V35.2231ZM27.1074 35.2231H37.4453V33.2231H27.1074V35.2231ZM37.4453 35.2231C37.9757 35.2231 38.4844 35.0124 38.8595 34.6374L37.4453 33.2231H37.4453V35.2231ZM38.8595 34.6374L43.7283 29.7686L42.314 28.3544L37.4453 33.2231L38.8595 34.6374ZM43.7283 29.7686C44.1033 29.3935 44.3141 28.8848 44.3141 28.3544H42.3141V28.3544L43.7283 29.7686ZM44.3141 28.3544V2H42.3141V28.3544H44.3141ZM44.3141 2V0C43.2095 0 42.3141 0.89543 42.3141 2H44.3141ZM44.3141 2H48.595V0H44.3141V2ZM48.595 2V2H50.595C50.595 0.895428 49.6996 0 48.595 0V2ZM48.595 2V40H50.595V2H48.595ZM48.595 40V42C49.6996 42 50.595 41.1046 50.595 40H48.595ZM48.595 40H27.1074V42H48.595V40ZM27.1074 40H23.4876V42H27.1074V40ZM2 42H23.4876V40H2V42ZM0 40C0 41.1046 0.895432 42 2 42V40H2H0Z" fill="white"/>
</svg>
