<svg width="16" height="17" viewBox="0 0 16 17" fill="none" xmlns="http://www.w3.org/2000/svg">
<g clip-path="url(#clip0_854_42738)">
<path d="M14.2968 2.24475C12.6398 0.587688 9.9435 0.587688 8.28647 2.24475L5.28125 5.24997L5.98841 5.95706L8.99356 2.95184C9.60306 2.34235 10.4297 1.99994 11.2917 1.99995C12.1536 1.99995 12.9803 2.34236 13.5898 2.95186C14.1993 3.56136 14.5417 4.38801 14.5417 5.24996C14.5417 6.11192 14.1992 6.93857 13.5898 7.54806L10.5845 10.5533L11.2915 11.2604L14.2968 8.25516C15.954 6.59809 15.954 3.90184 14.2968 2.24475Z" fill="black" fill-opacity="0.4"/>
<path d="M7.04745 14.0888C6.43795 14.6983 5.61131 15.0407 4.74935 15.0407C3.8874 15.0407 3.06075 14.6983 2.45126 14.0888C1.84177 13.4793 1.49936 12.6526 1.49936 11.7907C1.49936 10.9287 1.84177 10.1021 2.45126 9.49259L5.27973 6.66413L4.57264 5.95703L1.74414 8.7855C1.34795 9.17981 1.03343 9.6484 0.818604 10.1644C0.603776 10.6805 0.492854 11.2338 0.49219 11.7928C0.491527 12.3518 0.601135 12.9054 0.814737 13.4219C1.02834 13.9385 1.34174 14.4078 1.73699 14.8031C2.13224 15.1983 2.60158 15.5117 3.11813 15.7253C3.63468 15.9389 4.18829 16.0485 4.74725 16.0478C5.30622 16.0472 5.85957 15.9362 6.37561 15.7214C6.89164 15.5066 7.36023 15.1921 7.75454 14.7959L10.583 11.9674L9.87589 11.2603L7.04745 14.0888Z" fill="black" fill-opacity="0.4"/>
<path d="M11.114 4.71959L4.04297 11.7906L4.75008 12.4978L11.8212 5.4267L11.114 4.71959Z" fill="black" fill-opacity="0.4"/>
</g>
<defs>
<clipPath id="clip0_854_42738">
<rect width="16" height="16" fill="white" transform="translate(0 0.5)"/>
</clipPath>
</defs>
</svg>
