<svg width="16" height="17" viewBox="0 0 16 17" fill="none" xmlns="http://www.w3.org/2000/svg">
<g clip-path="url(#clip0_854_42722)">
<path d="M10.3972 11.8332C7.2537 11.8332 4.69617 9.27407 4.69531 6.1296C4.69617 5.33251 5.34502 4.68433 6.14016 4.68433C6.22191 4.68433 6.3028 4.69121 6.38024 4.70498C6.55063 4.73339 6.71242 4.79106 6.86129 4.878C6.88281 4.89092 6.89743 4.91158 6.90087 4.93568L7.23304 7.02998C7.23734 7.05409 7.2296 7.07905 7.21325 7.09713C7.02995 7.30028 6.79589 7.44661 6.53514 7.51978L6.40951 7.55507L6.45683 7.67644C6.88538 8.76792 7.75797 9.63991 8.85 10.0703L8.97133 10.1185L9.00661 9.99284C9.07976 9.73201 9.22605 9.49788 9.42914 9.31453C9.44377 9.30076 9.46356 9.29387 9.48335 9.29387C9.48765 9.29387 9.49196 9.29387 9.49712 9.29473L11.5908 9.627C11.6158 9.6313 11.6364 9.64507 11.6493 9.66659C11.7354 9.81551 11.793 9.9782 11.8223 10.1486C11.8361 10.2244 11.8421 10.3044 11.8421 10.3879C11.8421 11.1842 11.1941 11.8323 10.3972 11.8332Z" fill="black" fill-opacity="0.4"/>
<path d="M15.9699 7.54989C15.8004 5.63377 14.9226 3.85623 13.4984 2.54524C12.0656 1.22651 10.2069 0.5 8.26289 0.5C3.99634 0.5 0.524937 3.97243 0.524937 8.24024C0.524937 9.6726 0.919916 11.0679 1.66772 12.2834L0 15.9762L5.33965 15.4072C6.26817 15.7877 7.2509 15.9805 8.26203 15.9805C8.52794 15.9805 8.80073 15.9667 9.07439 15.9383C9.31534 15.9125 9.55887 15.8746 9.7981 15.8264C13.3711 15.1042 15.9793 11.9322 16 8.28156V8.24024C16 8.00783 15.9897 7.77541 15.969 7.55075L15.9699 7.54989ZM5.54532 13.7863L2.59109 14.1014L3.47314 12.1465L3.29673 11.9098C3.28382 11.8926 3.27091 11.8754 3.25629 11.8556C2.49041 10.7977 2.08594 9.54778 2.08594 8.2411C2.08594 4.83409 4.85688 2.06234 8.26289 2.06234C11.4538 2.06234 14.1584 4.55261 14.4192 7.73152C14.433 7.90195 14.4407 8.07325 14.4407 8.24196C14.4407 8.29017 14.4398 8.33751 14.439 8.3883C14.3736 11.2384 12.3832 13.6589 9.59845 14.2753C9.3859 14.3226 9.16818 14.3588 8.95132 14.382C8.72586 14.4078 8.49438 14.4207 8.26462 14.4207C7.44624 14.4207 6.65111 14.2623 5.89986 13.949C5.81639 13.9154 5.73463 13.8793 5.65804 13.8423L5.54618 13.788L5.54532 13.7863Z" fill="black" fill-opacity="0.4"/>
</g>
<defs>
<clipPath id="clip0_854_42722">
<rect width="16" height="16" fill="white" transform="translate(0 0.5)"/>
</clipPath>
</defs>
</svg>
