<svg width="41" height="39" viewBox="0 0 41 39" fill="none" xmlns="http://www.w3.org/2000/svg">
<path d="M20.9395 1.66016C21.2107 1.50036 21.688 1.43956 22.3789 1.57324C23.0501 1.70311 23.7398 1.98254 24.2402 2.24316C25.7385 3.16242 26.7699 4.42103 27.1943 6.06348C27.6005 7.80703 27.4128 9.53545 26.8877 11.3281L26.7773 11.6885L26.7754 11.6963L26.709 11.9121C26.6747 12.0244 26.6406 12.1367 26.6064 12.249C26.52 12.5324 26.4321 12.8156 26.3438 13.0986L26.2412 13.4287C26.031 14.0967 26.484 14.7777 27.1582 14.8613L27.2949 14.8701L28.8916 14.875L30.8506 14.8838H30.8516L32.5752 14.8906L34.0723 14.8975C34.3377 14.8992 34.6046 14.8995 34.8721 14.8994V14.9004C35.1645 14.9006 35.4581 14.9018 35.7539 14.9043V14.9053H35.7666L36.0127 14.9033C36.8855 14.9154 37.6103 15.2128 38.2686 15.8135C38.8987 16.4984 39.0964 17.2316 39.0684 18.2891C39.0366 18.8416 38.8278 19.3183 38.459 19.7842L38.291 19.9844C37.859 20.4681 37.5529 21.2665 37.8701 22.0557L37.9424 22.2139C37.9528 22.2343 37.9629 22.255 37.9736 22.2754H37.9746C38.314 22.9542 38.3334 23.7463 38.0771 24.5723C37.9218 24.9649 37.7194 25.2816 37.4121 25.6348L37.4023 25.6465L37.2627 25.8105L37.0791 26.0254C36.7309 26.4275 36.6591 27.0027 36.9043 27.4795V27.4805C37.3957 28.4386 37.5116 29.2326 37.2188 30.1826C37.088 30.5186 36.926 30.8455 36.7393 31.0898L36.6553 31.1924C36.4457 31.429 36.2413 31.7447 36.1348 32.1152C36.0281 32.4865 36.0121 32.9588 36.2539 33.416L36.2529 33.417C36.5796 34.063 36.6323 34.8419 36.4297 35.5967C36.1079 36.4686 35.6034 37.0837 34.8477 37.4512C34.4413 37.622 34.1661 37.7031 33.8281 37.7207L33.6758 37.7246H33.6709L33.4912 37.7256L32.8994 37.7266H32.8975L32.4707 37.7285L31.0693 37.7314H31.0684L30.584 37.7324L28.3008 37.7363L25.6758 37.7422L23.6445 37.7461C23.2401 37.7463 22.8345 37.7451 22.4287 37.7471C20.3699 37.7567 18.5084 37.6751 16.6445 37.1621L16.2715 37.0537L16.0928 36.999H16.0938C15.6357 36.8565 15.1805 36.7016 14.7236 36.5381L13.3408 36.0283H13.3398L13.168 35.9639H13.1689C13.0281 35.9112 12.8873 35.8579 12.7461 35.8047V35.6504L12.7451 35.6348L12.9229 35.1602L13.2725 34.2227H13.2715L12.9229 35.1592L12.7451 35.6328L12.7441 35.3955L12.7402 34.5449V34.5439L12.7363 33.9355L12.7168 28.377L12.7148 27.4453L12.7012 24.4463L12.6904 21.376L12.6826 19.6416L12.6787 18.0283V18.0254L12.6748 17.416C12.6661 16.7048 12.6639 16.3983 12.6797 16.2158C12.6837 16.1699 12.6878 16.1479 12.6895 16.1406C12.6913 16.1362 12.6965 16.1238 12.71 16.0986C12.7365 16.0752 12.7636 16.0522 12.793 16.0293L12.9238 15.9355C13.0089 15.8777 13.1016 15.8063 13.1934 15.7188L13.2842 15.626C13.3576 15.5454 13.4308 15.4609 13.5029 15.374C13.6291 15.2272 13.7593 15.0829 13.8926 14.9375L14.3027 14.498L14.3047 14.4961C14.9396 13.8215 15.5856 13.1313 16.208 12.4141L16.207 12.4131C16.3688 12.228 16.5333 12.0445 16.6992 11.8604L17.2061 11.3037L17.207 11.3018C17.5886 10.8822 17.9497 10.4555 18.2998 10.0225L18.2988 10.0215C18.3722 9.93317 18.4487 9.8467 18.5264 9.75879L18.7754 9.48242L18.7783 9.47949C19.2075 9.00884 19.5911 8.51465 19.9492 8.0498L19.9482 8.04883C20.0004 7.98197 20.0106 7.97086 20.0234 7.95605C20.0415 7.93515 20.0665 7.90772 20.1523 7.81543L20.2002 7.76465L20.2402 7.70605C20.3782 7.50806 20.4963 7.29004 20.5586 7.01953C20.6121 6.78697 20.6108 6.56267 20.6104 6.4209L20.6113 6.11914V6.10547L20.6104 5.94531V5.45898L20.6113 4.24902V4.20996L20.6133 3.16895V3.16602C20.6138 3.00097 20.6127 2.83707 20.6113 2.67871C20.6143 2.12117 20.6555 1.96459 20.8086 1.76758L20.8555 1.73047L20.8633 1.72461L20.8701 1.71875L20.9395 1.66016Z" stroke="white" stroke-width="2"/>
<path d="M8.375 15.0156V37.8594H1V15.0156H8.375Z" stroke="white" stroke-width="2"/>
</svg>
