<svg width="50" height="34" viewBox="0 0 50 34" fill="none" xmlns="http://www.w3.org/2000/svg">
<path d="M13.4783 12.2747H5.76858L1.53516 20.2857V22.9169L2.82349 24.1034H9.06784H10.1791H16.4234L17.7118 22.9169V20.2857L13.4783 12.2747Z" fill="white" stroke="#9E9E9E" stroke-width="2" stroke-miterlimit="10"/>
<path d="M9.62424 10.1206C11.9236 10.1206 13.7875 8.2021 13.7875 5.83555C13.7875 3.469 11.9236 1.55054 9.62424 1.55054C7.32491 1.55054 5.46094 3.469 5.46094 5.83555C5.46094 8.2021 7.32491 10.1206 9.62424 10.1206Z" fill="white" stroke="#9E9E9E" stroke-width="2" stroke-miterlimit="10"/>
<path d="M44.2323 12.2747H36.5237L32.2891 20.2857V22.9169L33.5774 24.1034H39.8229H40.933H47.1785L48.4669 22.9169V20.2857L44.2323 12.2747Z" fill="white" stroke="#9E9E9E" stroke-width="2" stroke-miterlimit="10"/>
<path d="M40.3762 10.1206C42.6755 10.1206 44.5395 8.2021 44.5395 5.83555C44.5395 3.469 42.6755 1.55054 40.3762 1.55054C38.0769 1.55054 36.2129 3.469 36.2129 5.83555C36.2129 8.2021 38.0769 10.1206 40.3762 10.1206Z" fill="white" stroke="#9E9E9E" stroke-width="2" stroke-miterlimit="10"/>
<path d="M30.0186 17.05H19.9829L14.4707 27.4794V30.9045L16.1477 32.4494H24.2782H25.7234H33.8539L35.5308 30.9045V27.4794L30.0186 17.05Z" fill="white" stroke="#9E9E9E" stroke-width="2" stroke-miterlimit="10"/>
<path d="M25.0008 14.2464C27.9946 14.2464 30.4215 11.7485 30.4215 8.66722C30.4215 5.58591 27.9946 3.08801 25.0008 3.08801C22.007 3.08801 19.5801 5.58591 19.5801 8.66722C19.5801 11.7485 22.007 14.2464 25.0008 14.2464Z" fill="white" stroke="#9E9E9E" stroke-width="2" stroke-miterlimit="10"/>
</svg>
