<svg width="19" height="18" viewBox="0 0 19 18" fill="none" xmlns="http://www.w3.org/2000/svg">
<path d="M13.85 0.90332H5.02278C2.58411 0.90332 0.600189 2.88783 0.600189 5.32722V13.4052C0.600189 15.8446 2.58411 17.8291 5.02278 17.8291H13.85C16.2887 17.8291 18.2726 15.8446 18.2726 13.4052V5.32722C18.2726 2.88783 16.2887 0.90332 13.85 0.90332ZM2.16034 5.32722C2.16034 3.74861 3.44464 2.46393 5.02278 2.46393H13.85C15.4281 2.46393 16.7124 3.74861 16.7124 5.32722V13.4052C16.7124 14.9838 15.4281 16.2685 13.85 16.2685H5.02278C3.44464 16.2685 2.16034 14.9838 2.16034 13.4052V5.32722Z" fill="white"/>
<path d="M9.43686 13.4809C11.7046 13.4809 13.5506 11.6354 13.5506 9.36595C13.5506 7.09651 11.7056 5.25098 9.43686 5.25098C7.16809 5.25098 5.32309 7.09651 5.32309 9.36595C5.32309 11.6354 7.16809 13.4809 9.43686 13.4809ZM9.43686 6.81259C10.8451 6.81259 11.9905 7.9583 11.9905 9.36695C11.9905 10.7756 10.8451 11.9213 9.43686 11.9213C8.02862 11.9213 6.88324 10.7756 6.88324 9.36695C6.88324 7.9583 8.02862 6.81259 9.43686 6.81259Z" fill="white"/>
<path d="M13.9308 5.91374C14.5414 5.91374 15.0392 5.41686 15.0392 4.80502C15.0392 4.19317 14.5424 3.69629 13.9308 3.69629C13.3191 3.69629 12.8224 4.19317 12.8224 4.80502C12.8224 5.41686 13.3191 5.91374 13.9308 5.91374Z" fill="white"/>
</svg>
