<svg width="16" height="17" viewBox="0 0 16 17" fill="none" xmlns="http://www.w3.org/2000/svg">
<path d="M14.6364 4.63201V7.21738C14.1751 7.17325 13.5756 7.07061 12.9125 6.8327C12.0466 6.52188 11.4021 6.09689 10.98 5.76784V10.9933L10.9692 10.977C10.976 11.0806 10.98 11.1861 10.98 11.2926C10.98 13.8876 8.82409 16 6.17357 16C3.52306 16 1.36719 13.8876 1.36719 11.2926C1.36719 8.69762 3.52306 6.58423 6.17357 6.58423C6.43314 6.58423 6.68781 6.60437 6.9366 6.64371V9.19167C6.69761 9.10821 6.44098 9.06313 6.17357 9.06313C4.91884 9.06313 3.89723 10.0627 3.89723 11.2926C3.89723 12.5224 4.91884 13.5221 6.17357 13.5221C7.42831 13.5221 8.44992 12.5215 8.44992 11.2926C8.44992 11.2465 8.44894 11.2005 8.446 11.1545V1H11.0838C11.0936 1.21873 11.1024 1.43938 11.1122 1.6581C11.1298 2.08884 11.2865 2.5023 11.5598 2.84094C11.8801 3.23906 12.3532 3.70146 13.0173 4.0708C13.6393 4.4152 14.2231 4.56389 14.6364 4.63392V4.63201Z" fill="black" fill-opacity="0.4"/>
</svg>
