<svg width="97" height="40" viewBox="0 0 97 40" fill="none" xmlns="http://www.w3.org/2000/svg">
<g id="Logo">
<g id="Group 96">
<path id="Vector" d="M34.8544 15.7118L25.6138 0.625544C25.3747 0.237352 24.9572 0 24.5071 0H20.3369C19.8868 0 19.4694 0.237352 19.2302 0.625544L17.5212 3.41388L15.8145 0.625544C15.5753 0.237352 15.1578 0 14.7078 0H10.5549C10.1049 0 9.6874 0.237352 9.44823 0.625544L0.198944 15.7251C-0.0663148 16.1555 -0.0663148 16.7034 0.198944 17.1359L9.43954 32.2222C9.6787 32.6104 10.0962 32.8477 10.5462 32.8477H14.7165C15.1665 32.8477 15.584 32.6104 15.8232 32.2222L17.5321 29.4339L19.2411 32.2222C19.4803 32.6104 19.8977 32.8477 20.3478 32.8477H24.5006C24.9507 32.8477 25.3681 32.6104 25.6073 32.2222L34.8588 17.1226C35.1175 16.6901 35.1175 16.1422 34.8544 15.7118ZM21.985 15.7251C22.2503 16.1555 22.2503 16.7034 21.985 17.1359L17.5299 24.4095L13.0662 17.1226C12.8009 16.6901 12.8009 16.1422 13.0662 15.7118L17.5212 8.4382L21.985 15.7251ZM13.6011 30.8269C13.1532 31.5567 12.1095 31.5567 11.6638 30.8269L3.27769 17.1359C3.01243 16.7034 3.01243 16.1555 3.27769 15.7251L11.6616 2.03413C12.1073 1.30433 13.151 1.30211 13.5989 2.03413L15.984 5.92714L9.9918 15.7118C9.72654 16.1422 9.72654 16.6901 9.9918 17.1226L15.9927 26.9206L13.6011 30.8269ZM31.7778 17.1226L23.3917 30.8136C22.9438 31.5434 21.9002 31.5434 21.4545 30.8136L19.0715 26.9228L25.0659 17.1359C25.329 16.7034 25.329 16.1555 25.0659 15.7251L19.0628 5.92493L21.4545 2.02082C21.9002 1.29102 22.9438 1.2888 23.3917 2.02082L31.7778 15.7118C32.0409 16.1422 32.0409 16.6901 31.7778 17.1226Z" fill="#FF7028"/>
<g id="Group 95">
<g id="PT. Wahana">
<path id="Vector_2" d="M76.3095 26.2336L77.3428 22.0453H78.694L79.7335 26.2336H79.0487L78.8224 25.3348H77.2144L76.9881 26.2336H76.3095ZM77.8686 22.614L77.3489 24.7356H78.6879L78.1743 22.614H77.8686Z" fill="white"/>
<path id="Vector_3" d="M72.4783 26.2336V22.0453H73.6645L74.9363 25.6344H75.028V22.0453H75.7067V26.2336H74.545L73.2426 22.6384H73.157V26.2336H72.4783Z" fill="white"/>
<path id="Vector_4" d="M68.4559 26.2336L69.4893 22.0453H70.8405L71.8799 26.2336H71.1951L70.9689 25.3348H69.3609L69.1346 26.2336H68.4559ZM70.0151 22.614L69.4954 24.7356H70.8344L70.3208 22.614H70.0151Z" fill="white"/>
<path id="Vector_5" d="M67.1758 26.2336V24.4237H65.366V26.2336H64.6873V22.0453H65.366V23.8307H67.1758V22.0453H67.8606V26.2336H67.1758Z" fill="white"/>
<path id="Vector_6" d="M60.6659 26.2336L61.6992 22.0453H63.0505L64.0899 26.2336H63.4051L63.1789 25.3348H61.5708L61.3446 26.2336H60.6659ZM62.225 22.614L61.7053 24.7356H63.0444L62.5308 22.614H62.225Z" fill="white"/>
<path id="Vector_7" d="M55.2392 22.0453H55.9546L56.5538 25.6466H56.6822L57.477 22.0575H58.2719L59.0668 25.6466H59.2013L59.8005 22.0453H60.5158L59.6904 26.2336H58.596L57.8745 22.8768L57.1591 26.2336H56.0585L55.2392 22.0453Z" fill="white"/>
<path id="Vector_8" d="M52.6579 26.2342V25.3538H53.3733V26.2342H52.6579Z" fill="white"/>
<path id="Vector_9" d="M49.5048 22.6507V22.0453H52.5619V22.6507H51.3819V26.2336H50.6971V22.6507H49.5048Z" fill="white"/>
<path id="Vector_10" d="M47.8305 24.9313H46.9745V26.2336H46.2958V22.0453H47.8305C48.7802 22.0453 49.2551 22.5141 49.2551 23.4516C49.2551 23.9326 49.1348 24.2995 48.8944 24.5522C48.6579 24.8049 48.3033 24.9313 47.8305 24.9313ZM46.9745 24.3443H47.8244C48.3135 24.3443 48.5581 24.0468 48.5581 23.4516C48.5581 23.1663 48.499 22.9584 48.3808 22.828C48.2625 22.6975 48.0771 22.6323 47.8244 22.6323H46.9745V24.3443Z" fill="white"/>
</g>
<g id="Group 94">
<path id="Vector_11" d="M68.1546 31.3557V32.8478H67.4597V28.6591H69.0874C70.0556 28.6591 70.5398 29.1035 70.5398 29.9921C70.5398 30.5873 70.306 30.9909 69.8386 31.2029L70.546 32.8478H69.7823L69.1625 31.3557H68.1546ZM69.8261 29.9983C69.8261 29.4968 69.5798 29.2461 69.0874 29.2461H68.1546V30.7687H69.0999C69.3503 30.7687 69.5339 30.6994 69.6508 30.5608C69.7676 30.4181 69.8261 30.2306 69.8261 29.9983Z" fill="white"/>
<path id="Vector_12" d="M64.386 31.4636C64.386 31.9972 64.6668 32.264 65.2285 32.264C65.7902 32.264 66.071 31.9972 66.071 31.4636V28.6591H66.7451V31.4515C66.7451 31.937 66.6167 32.2921 66.3599 32.5168C66.1072 32.7374 65.728 32.8478 65.2225 32.8478C64.721 32.8478 64.3438 32.7374 64.0911 32.5168C63.8383 32.2921 63.7119 31.937 63.7119 31.4515V28.6591H64.386V31.4636Z" fill="white"/>
<path id="Vector_13" d="M58.8622 32.8477V28.659H60.0288L60.9535 31.9304L61.8783 28.659H63.0509V32.8477H62.3739V29.4111H62.2833L61.3041 32.6765H60.603L59.6238 29.4111H59.5331V32.8477H58.8622Z" fill="white"/>
<path id="Vector_14" d="M55.9881 32.8477H55.3349V28.659H55.9881V30.5485L56.5884 30.4996L57.4122 28.659H58.1596L57.1651 30.7625L58.2008 32.8477H57.4417L56.5884 31.0988L55.9881 31.1416V32.8477Z" fill="white"/>
<path id="Vector_15" d="M51.1464 32.8477L52.2109 28.659H53.6029L54.6737 32.8477H53.9682L53.7352 31.9488H52.0786L51.8456 32.8477H51.1464ZM52.7526 29.2277L52.2172 31.3495H53.5966L53.0675 29.2277H52.7526Z" fill="white"/>
<path id="Vector_16" d="M46.2958 32.8477V28.659H47.5238L48.4972 31.9304L49.4706 28.659H50.7049V32.8477H49.9923V29.4111H49.8969L48.8662 32.6765H48.1282L47.0975 29.4111H47.002V32.8477H46.2958Z" fill="white"/>
</g>
<g id="Group 93">
<path id="Vector_17" d="M66.5411 39.4613L67.5391 35.2726H68.8441L69.8479 39.4613H69.1866L68.9681 38.5624H67.4151L67.1966 39.4613H66.5411ZM68.0469 35.8413L67.545 37.9632H68.8382L68.3421 35.8413H68.0469Z" fill="white"/>
<path id="Vector_18" d="M65.0306 35.8788C64.5334 35.8788 64.2848 36.053 64.2848 36.4014C64.2848 36.5815 64.3435 36.7107 64.461 36.789C64.5784 36.8634 64.8368 36.9574 65.2362 37.0709C65.6394 37.1805 65.9232 37.3136 66.0877 37.4702C66.2521 37.6229 66.3343 37.8656 66.3343 38.1984C66.3343 38.6212 66.2129 38.9384 65.9702 39.1498C65.7314 39.3573 65.4045 39.461 64.9895 39.461C64.6567 39.461 64.2887 39.4219 63.8855 39.3436L63.6741 39.3024L63.7387 38.7798C64.2672 38.8503 64.6704 38.8855 64.9484 38.8855C65.4339 38.8855 65.6766 38.6702 65.6766 38.2395C65.6766 38.0712 65.6218 37.9479 65.5122 37.8696C65.4025 37.7873 65.1559 37.6992 64.7722 37.6053C64.3885 37.5074 64.1028 37.3743 63.9148 37.206C63.7269 37.0376 63.6329 36.7714 63.6329 36.4073C63.6329 36.0432 63.7504 35.7691 63.9853 35.5851C64.2241 35.3972 64.553 35.3033 64.9719 35.3033C65.2733 35.3033 65.6296 35.3385 66.0407 35.409L66.2462 35.4442L66.1934 35.9727C65.6453 35.9101 65.2577 35.8788 65.0306 35.8788Z" fill="white"/>
<path id="Vector_19" d="M60.812 38.5371C60.9466 38.7701 61.2039 38.8866 61.5838 38.8866C61.9638 38.8866 62.2191 38.7721 62.3497 38.543C62.4842 38.3139 62.5515 37.9308 62.5515 37.3936C62.5515 36.8525 62.4823 36.4595 62.3437 36.2146C62.2092 35.9698 61.9559 35.8473 61.5838 35.8473C61.2118 35.8473 60.9565 35.9698 60.818 36.2146C60.6794 36.4595 60.6102 36.8505 60.6102 37.3877C60.6102 37.9209 60.6775 38.304 60.812 38.5371ZM62.8662 38.9636C62.6247 39.2954 62.1973 39.4613 61.5838 39.4613C60.9703 39.4613 60.5409 39.2954 60.2955 38.9636C60.0501 38.6279 59.9274 38.1026 59.9274 37.3877C59.9274 36.6728 60.0501 36.1416 60.2955 35.794C60.5449 35.4464 60.9743 35.2726 61.5838 35.2726C62.1933 35.2726 62.6208 35.4464 62.8662 35.794C63.1116 36.1376 63.2343 36.6689 63.2343 37.3877C63.2343 38.1065 63.1116 38.6318 62.8662 38.9636Z" fill="white"/>
<path id="Vector_20" d="M56.621 35.878V35.2727H59.7074V35.878H58.516V39.4613H57.8247V35.878H56.621Z" fill="white"/>
<path id="Vector_21" d="M52.8729 39.4613V35.2726H54.0879L55.3906 38.862H55.4845V35.2726H56.1797V39.4613H54.9897L53.6557 35.8658H53.5681V39.4613H52.8729Z" fill="white"/>
<path id="Vector_22" d="M49.5663 39.4613V35.2726H52.2117V35.8658H50.246V37.0521H51.8443V37.6391H50.246V38.862H52.2117V39.4613H49.5663Z" fill="white"/>
<path id="Vector_23" d="M47.6935 35.8788C47.1963 35.8788 46.9477 36.053 46.9477 36.4014C46.9477 36.5815 47.0064 36.7107 47.1239 36.789C47.2413 36.8634 47.4997 36.9574 47.8991 37.0709C48.3023 37.1805 48.5862 37.3136 48.7506 37.4702C48.915 37.6229 48.9972 37.8656 48.9972 38.1984C48.9972 38.6212 48.8759 38.9384 48.6331 39.1498C48.3943 39.3573 48.0674 39.461 47.6524 39.461C47.3196 39.461 46.9516 39.4219 46.5484 39.3436L46.337 39.3024L46.4016 38.7798C46.9301 38.8503 47.3333 38.8855 47.6113 38.8855C48.0968 38.8855 48.3395 38.6702 48.3395 38.2395C48.3395 38.0712 48.2847 37.9479 48.1751 37.8696C48.0655 37.7873 47.8188 37.6992 47.4351 37.6053C47.0515 37.5074 46.7657 37.3743 46.5777 37.206C46.3898 37.0376 46.2959 36.7714 46.2959 36.4073C46.2959 36.0432 46.4133 35.7691 46.6482 35.5851C46.887 35.3972 47.2159 35.3033 47.6348 35.3033C47.9363 35.3033 48.2925 35.3385 48.7036 35.409L48.9091 35.4442L48.8563 35.9727C48.3082 35.9101 47.9206 35.8788 47.6935 35.8788Z" fill="white"/>
</g>
</g>
</g>
<g id="Vector_24">
<path d="M91.7144 1.67761C89.2898 1.67761 88.0776 2.59812 88.0776 4.43914C88.0776 5.46555 88.3523 6.17427 88.9019 6.56528C89.4676 6.94 90.5991 7.32287 92.2963 7.71389C94.0097 8.08861 95.222 8.58552 95.9332 9.20463C96.6444 9.80744 97 10.8094 97 12.2105C97 15.6808 95.2139 17.4159 91.6417 17.4159C90.4617 17.4159 88.9827 17.2774 87.2047 17.0005L86.638 16.9211C86.4683 16.8974 86.3489 16.7406 86.3702 16.5693L86.4867 15.6298C86.5083 15.4559 86.6667 15.3331 86.8392 15.3555C88.8838 15.6212 90.4522 15.7541 91.5447 15.7541C93.9369 15.7541 95.133 14.6218 95.133 12.3572C95.133 11.4448 94.8664 10.7931 94.3329 10.4021C93.8157 9.9948 92.8378 9.65266 91.3992 9.37569C89.5081 8.96839 88.1665 8.44704 87.3744 7.81164C86.5824 7.15995 86.1864 6.07651 86.1864 4.56134C86.1864 1.53098 87.9887 0.0157988 91.5932 0.0157988C92.7731 0.0157988 94.1875 0.137991 95.8362 0.382374L96.3623 0.460365C96.5289 0.48505 96.6463 0.637859 96.6283 0.806451L96.5248 1.77461C96.5061 1.94973 96.3483 2.07545 96.1747 2.05448C94.0941 1.80323 92.6073 1.67761 91.7144 1.67761Z" fill="white"/>
<path d="M67.0742 17.406C66.9011 17.406 66.7608 17.2647 66.7608 17.0904V0.315668C66.7608 0.14133 66.9011 0 67.0742 0H70.006C70.1407 0 70.2603 0.0867197 70.3031 0.215385L75.1254 14.7147L79.9477 0.215384C79.9905 0.0867195 80.1101 0 80.2448 0H83.1767C83.3497 0 83.49 0.141329 83.49 0.315668V17.0904C83.49 17.2647 83.3497 17.406 83.1767 17.406H81.8808C81.7077 17.406 81.5674 17.2647 81.5674 17.0904V1.89517C81.5674 1.85748 81.5371 1.82692 81.4997 1.82692C81.471 1.82692 81.4454 1.84514 81.4358 1.8724L76.273 16.5669C76.2287 16.6929 76.1103 16.7772 75.9776 16.7772H74.2732C74.1405 16.7772 74.0221 16.6929 73.9778 16.5669L68.815 1.8724C68.8055 1.84514 68.7799 1.82692 68.7512 1.82692C68.7137 1.82692 68.6834 1.85748 68.6834 1.89518V17.0904C68.6834 17.2647 68.5431 17.406 68.37 17.406H67.0742Z" fill="white"/>
<path d="M44.0973 0.378693C44.0577 0.183047 44.2061 0 44.4043 0H45.7616C45.9108 0 46.0394 0.106037 46.0688 0.253434L49.1727 15.8023C49.1877 15.8773 49.2531 15.9313 49.329 15.9313C49.4027 15.9313 49.4668 15.8803 49.484 15.8081L53.1517 0.393012C53.1854 0.251037 53.3115 0.150919 53.4564 0.150919H55.2094C55.3543 0.150919 55.4803 0.251036 55.5141 0.393012L59.1817 15.8081C59.1989 15.8803 59.263 15.9313 59.3367 15.9313C59.4127 15.9313 59.4781 15.8773 59.493 15.8023L62.597 0.253435C62.6264 0.106038 62.7549 0 62.9042 0H64.237C64.435 0 64.5834 0.182737 64.5441 0.378263L61.1753 17.153C61.1457 17.3002 61.0172 17.406 60.8681 17.406H57.8553C57.7084 17.406 57.5812 17.3032 57.5494 17.1587L54.3329 2.54048L51.1164 17.1587C51.0846 17.3032 50.9574 17.406 50.8104 17.406H47.7972C47.6483 17.406 47.5199 17.3004 47.4902 17.1534L44.0973 0.378693Z" fill="white"/>
</g>
</g>
</svg>
